<svg id="Layer_1" data-name="Layer 1" xmlns="http://www.w3.org/2000/svg" viewBox="0 0 567.07424 536.0315"><defs><style>.cls-1{fill:#ceaf87;}.cls-2{fill:#405153;}</style></defs><title>01 LOGO</title><polygon class="cls-1" points="146.724 372.811 141.065 374.207 141.065 400.344 158.718 400.344 158.718 397.806 146.724 397.806 146.724 372.811"/><path class="cls-1" d="M189.88339,385.79044a6.09214,6.09214,0,0,0,1.96284-4.76951,7.18943,7.18943,0,0,0-2.74553-6.09234c-1.79774-1.35748-4.475-2.04641-7.9553-2.04641h-9.33419v27.4614h5.65921V375.13445h1.85176a8.1216,8.1216,0,0,1,5.22,1.41251,5.24685,5.24685,0,0,1,1.68665,4.27218,4.39325,4.39325,0,0,1-1.6948,3.80746c-1.15366.83365-3.18478,1.34933-6.0363,1.53277l-.40867.0265,7.70665,14.15771h6.3675l-7.351-12.66367A8.447,8.447,0,0,0,189.88339,385.79044Z"/><polygon class="cls-1" points="200.911 400.344 206.529 400.344 206.529 372.809 200.911 374.207 200.911 400.344"/><polygon class="cls-1" points="234.217 385.132 223.159 385.132 223.159 372.811 217.5 374.207 217.5 400.344 223.159 400.344 223.159 387.629 234.217 387.629 234.217 400.344 239.835 400.344 239.835 372.809 234.217 374.207 234.217 385.132"/><path class="cls-1" d="M292.88354,385.79656a6.335,6.335,0,0,0,2.85559-1.89965,5.946,5.946,0,0,0,1.28206-3.90326,6.69349,6.69349,0,0,0-1.0018-3.571,6.87045,6.87045,0,0,0-2.74043-2.5254,8.36,8.36,0,0,0-2.72719-.77046,31.821,31.821,0,0,0-4.35575-.24459h-8.44347v27.4614h10.05879c3.411,0,5.98126-.61351,7.64243-1.82423a6.55419,6.55419,0,0,0,2.54069-5.65,7.22254,7.22254,0,0,0-1.5399-4.70021A7.74717,7.74717,0,0,0,292.88354,385.79656Zm-9.47177-.94575v-9.71636h1.85175a8.03626,8.03626,0,0,1,4.84493,1.1883,4.28654,4.28654,0,0,1,1.52258,3.63013,4.612,4.612,0,0,1-1.37684,3.728,7.11788,7.11788,0,0,1-4.5555,1.17Zm9.06921,8.34054a4.552,4.552,0,0,1-1.41659,3.71574,7.34413,7.34413,0,0,1-4.6411,1.18015h-3.01152V387.06435h2.20437a7.6422,7.6422,0,0,1,5.19143,1.50831A5.903,5.903,0,0,1,292.481,393.19135Z"/><path class="cls-1" d="M342.32242,385.79044a6.09214,6.09214,0,0,0,1.96284-4.76951,7.18943,7.18943,0,0,0-2.74553-6.09234c-1.79876-1.35748-4.476-2.04641-7.95633-2.04641h-9.33418v27.4614h5.65921V375.13445h1.85278a8.11457,8.11457,0,0,1,5.219,1.41251,5.24421,5.24421,0,0,1,1.68767,4.27218,4.39323,4.39323,0,0,1-1.69481,3.80746c-1.15365.83365-3.18477,1.34933-6.03629,1.53277l-.40867.0265,7.70664,14.15771h6.36751l-7.351-12.66367A8.447,8.447,0,0,0,342.32242,385.79044Z"/><path class="cls-1" d="M374.16505,375.02235a15.18938,15.18938,0,0,0-4.06835-2.03011,14.671,14.671,0,0,0-14.63569,3.38554,13.28585,13.28585,0,0,0-3.14808,4.60442,15.50507,15.50507,0,0,0-.01019,11.32047,13.4783,13.4783,0,0,0,3.11547,4.62276,14.284,14.284,0,0,0,4.66251,3.04719,15.25367,15.25367,0,0,0,11.04835,0,14.50242,14.50242,0,0,0,4.68391-3.04719,13.65823,13.65823,0,0,0,3.15624-4.61053,14.66917,14.66917,0,0,0,1.08639-5.65208,14.51584,14.51584,0,0,0-1.5185-6.61618A13.6785,13.6785,0,0,0,374.16505,375.02235Zm-.14063,11.64047a14.88634,14.88634,0,0,1-2.38578,8.78691,7.11767,7.11767,0,0,1-12.02469-.01223,17.36669,17.36669,0,0,1,0-17.56975,7.11663,7.11663,0,0,1,12.03386,0A14.96919,14.96919,0,0,1,374.02442,386.66282Z"/><polygon class="cls-1" points="396.702 383.728 389.913 373.004 389.836 372.882 383.135 372.882 392.643 387.126 392.643 400.344 398.302 400.344 398.302 386.422 407.515 373.294 407.802 372.882 404.055 372.882 396.702 383.728"/><polygon class="cls-1" points="420.114 371.926 408.506 399.983 408.357 400.344 411.366 400.344 418.795 382.073 426.304 400.344 432.344 400.344 420.359 372.493 420.114 371.926"/><polygon class="cls-1" points="258.54 371.926 246.931 399.983 246.782 400.344 249.792 400.344 257.22 382.073 264.729 400.344 270.769 400.344 258.785 372.493 258.54 371.926"/><polygon class="cls-1" points="110.244 399.983 110.095 400.344 113.105 400.344 120.533 382.073 128.042 400.344 134.083 400.344 121.853 371.926 110.244 399.983"/><polygon class="cls-1" points="444.985 397.806 444.985 372.811 439.326 374.207 439.326 400.344 456.979 400.344 456.979 397.806 444.985 397.806"/><path class="cls-2" d="M301.53425,345.519a5.13185,5.13185,0,0,0-5.14194,5.22992,5.02839,5.02839,0,0,0,5.14194,5.13989,5.18507,5.18507,0,1,0,0-10.36981Z"/><path class="cls-2" d="M316.68587,310.81242v26.91485H291.92049c-10.58772,0-15.22733-8.03107-15.98236-14.90813l-.03785-.34989-2.40523,1.01284.02148.19438c.70592,6.431,4.24471,17.21822,20.003,17.21822h32.31562V308.31205l-8.95593,2.44922Z"/><path class="cls-2" d="M401.35138,349.88131l.85222-1.60212h-.43583c-1.9827,0-3.79046-1.40365-5.08771-3.95314-1.53562-3.018-2.34692-7.57888-2.34692-13.19142a34.7416,34.7416,0,0,0-6.05655-20.26492c-4.30916-5.96243-10.27876-9.11348-17.26324-9.11348-8.338,0-12.57554,5.28926-15.67032,9.15032l-.16369.20461,1.71466,1.375.16472-.19029c2.87175-3.29428,6.99266-7.07758,13.42775-7.07758,5.92868,0,9.55033,2.51879,11.397,7.92673,1.65839,4.85752,1.65737,11.53405,1.65737,17.98961a33.82641,33.82641,0,0,0,.58519,6.59264H354.73636c-9.6373,0-13.56792-3.93676-13.56792-13.58838V287.80774l-.31613.06752c-3.92346.83278-8.605,2.34692-8.65208,2.36124l-.18006.05934-.09616,33.59138c0,11.76118,6.2049,17.00747,20.11963,17.00747h32.94379c1.54483,4.22322,4.834,8.98662,16.2064,8.98662Z"/><path class="cls-2" d="M456.66321,287.87526c-3.92346.83278-8.606,2.34692-8.6531,2.36124l-.18108.05934-.09515,50.33694v.26191h9.24546V287.80774Z"/><path class="cls-2" d="M432.49575,290.28561l-.091,47.64218h-5.97881c-6.36654,0-9.21579-4.82478-9.21579-9.60455V308.33251L416.894,308.4c-3.92347.83482-8.605,2.349-8.65208,2.36329l-.18108.05933v30.08022c0,8.72881-.84813,15.95576-11.266,15.95576h-.48289l1.43537,2.20573h.1422c12.54485,0,18.99938-3.061,19.29607-19.70018a25.12647,25.12647,0,0,0,9.24034,1.53051H441.645V287.78728l-8.95593,2.44717ZM415.92321,338.492v.00013l-.00025.00013v-.00013Z"/><path class="cls-2" d="M224.54334,307.80461c-13.64158,0-21.466,5.86217-21.466,16.08261,0,11.76118,6.2049,17.00747,20.11964,17.00747h7.4377v.00818c0,8.72881-.84813,15.95576-11.266,15.95576h-.48289l1.43537,2.20573h.1422c12.76558,0,19.26691-3.2178,19.31705-20.70343l.0046-.0014V309.87734l-.178-.05934A52.01412,52.01412,0,0,0,224.54334,307.80461Zm6.09134,3.07738v26.84528h-4.745c-9.49815,0-12.864-3.4682-12.864-13.25076,0-9.65366,3.76693-14.149,11.8553-14.149A34.18544,34.18544,0,0,1,230.63468,310.882Z"/><path class="cls-2" d="M251.91856,310.81242v30.09045c0,8.72881-.84812,15.95576-11.266,15.95576h-.48289l1.43537,2.20573h.1422c12.81392,0,19.32062-3.23289,19.32062-20.89717V308.31205l-8.95593,2.44922Z"/><path class="cls-2" d="M188.21672,345.519a5.13185,5.13185,0,0,0-5.14194,5.22992,5.02839,5.02839,0,0,0,5.14194,5.13989,5.18507,5.18507,0,1,0,0-10.36981Z"/><path class="cls-2" d="M174.69587,345.519a5.13185,5.13185,0,0,0-5.14194,5.22992,5.02839,5.02839,0,0,0,5.14194,5.13989,5.18507,5.18507,0,1,0,0-10.36981Z"/><path class="cls-2" d="M196.9885,308.31205l-8.95593,2.44922-.19336.05115v27.11537h-6.06986c-7.52773,0-9.10734-7.49908-9.10734-13.7889V287.78728l-8.957,2.44717-.19234.05116-.09617,33.60161c0,11.28443,6.17523,17.00747,18.3528,17.00747H196.9885Z"/><path class="cls-2" d="M147.965,290.28561l-.31348,48.42463c0,11.67405-8.26427,17.1867-17.1491,17.1867-10.78312,0-18.96014-9.51364-16.83416-21.22251l-2.72677-1.57223c-3.60864,12.41675,4.56791,25.96216,19.77748,25.96216,16.64514,0,26.39634-9.64909,26.39634-26.0313V287.78728l-8.957,2.44717Z"/><path class="cls-1" d="M343.725,172.9464,321.546,150.7672a53.75255,53.75255,0,0,0-76.01759,0L223.3493,172.9464a53.75218,53.75218,0,0,0,0,76.01746l13.794,13.794c-6.29544-12.16171,4.27182-26.627,27.28162-41.9593,29.3078-19.52869,37.1312-24.85823,39.01083-35.841q.22827-1.33377.32086-2.67865c-.01637-14.59277-13.3619-21.03029-25.37859-21.03029a33.76689,33.76689,0,0,0-20.0736,6.7085c5.13426-6.31539,15.62531-9.28011,22.78319-9.309,6.122-.02468,14.73984.88393,22.56707,5.88072,15.9977,9.52194,18.09512,30.27958-1.09583,46.403-5.17327,4.34638-41.81492,28.706-44.56288,31.0249-4.80433,4.02449-17.93744,16.03683-14.09991,27.554l1.6323,1.6323a53.75257,53.75257,0,0,0,76.01759,0l22.17907-22.1792A53.75239,53.75239,0,0,0,343.725,172.9464Zm-77.03324,11.62434v27.47779c-3.62447,2.98761-13.02108,9.51286-14.31961,11.48291V170.058ZM307.29643,251.654l-17.1562-25.07269c.36012-.2174.72536-.41933,1.08369-.64223a104.46744,104.46744,0,0,0,10.59359-7.64424l23.22912,33.84434Z"/></svg>